<?xml version="1.0" encoding="UTF-8" standalone="no"?>
<!DOCTYPE svg PUBLIC "-//W3C//DTD SVG 1.1//EN"
 "http://www.w3.org/Graphics/SVG/1.1/DTD/svg11.dtd">
<!-- Generated by graphviz version 2.47.0 (20210316.0004)
 -->
<!-- Title: dependencies Pages: 1 -->
<svg width="2071pt" height="284pt"
 viewBox="0.00 0.00 2071.00 284.00" xmlns="http://www.w3.org/2000/svg" xmlns:xlink="http://www.w3.org/1999/xlink">
<g id="graph0" class="graph" transform="scale(1 1) rotate(0) translate(4 280)">
<title>dependencies</title>
<polygon fill="white" stroke="transparent" points="-4,4 -4,-280 2067,-280 2067,4 -4,4"/>
<text text-anchor="start" x="1010.51" y="-42.4" font-family="Times-12" font-weight="bold" font-size="14.00">Legend</text>
<polygon fill="#ffffb3" stroke="transparent" points="797.5,-10 797.5,-30 817.5,-30 817.5,-10 797.5,-10"/>
<text text-anchor="start" x="821.13" y="-15.4" font-family="Times-12" font-size="14.00"> &#160;Declarations</text>
<polygon fill="#8dd3c7" stroke="transparent" points="910.5,-10 910.5,-30 930.5,-30 930.5,-10 910.5,-10"/>
<text text-anchor="start" x="934.23" y="-15.4" font-family="Times-12" font-size="14.00"> &#160;Module</text>
<polygon fill="#80b1d3" stroke="transparent" points="996.5,-10 996.5,-30 1016.5,-30 1016.5,-10 996.5,-10"/>
<text text-anchor="start" x="1020.28" y="-15.4" font-family="Times-12" font-size="14.00"> &#160;Bootstrap</text>
<polygon fill="#fdb462" stroke="transparent" points="1093.5,-10 1093.5,-30 1113.5,-30 1113.5,-10 1093.5,-10"/>
<text text-anchor="start" x="1117.17" y="-15.4" font-family="Times-12" font-size="14.00"> &#160;Providers</text>
<polygon fill="#fb8072" stroke="transparent" points="1189.5,-10 1189.5,-30 1209.5,-30 1209.5,-10 1189.5,-10"/>
<text text-anchor="start" x="1213.23" y="-15.4" font-family="Times-12" font-size="14.00"> &#160;Exports</text>
<g id="clust1" class="cluster">
<title>cluster_AppModule</title>
<polygon fill="none" stroke="black" stroke-dasharray="1,5" points="8,-70 8,-268 2055,-268 2055,-70 8,-70"/>
</g>
<g id="clust2" class="cluster">
<title>cluster_AppModule_declarations</title>
<polygon fill="none" stroke="black" points="168,-78 168,-130 2047,-130 2047,-78 168,-78"/>
</g>
<g id="clust16" class="cluster">
<title>cluster_AppModule_imports</title>
<polygon fill="none" stroke="black" points="16,-78 16,-130 160,-130 160,-78 16,-78"/>
</g>
<g id="clust18" class="cluster">
<title>cluster_AppModule_bootstrap</title>
<polygon fill="none" stroke="black" points="1011,-208 1011,-260 1081,-260 1081,-208 1011,-208"/>
</g>
<!-- AdminDashboardComponent -->
<g id="node1" class="node">
<title>AdminDashboardComponent</title>
<polygon fill="#ffffb3" stroke="black" points="2039.36,-122 1858.64,-122 1858.64,-86 2039.36,-86 2039.36,-122"/>
<text text-anchor="middle" x="1949" y="-99.8" font-family="Times,serif" font-size="14.00">AdminDashboardComponent</text>
</g>
<!-- AppModule -->
<g id="node14" class="node">
<title>AppModule</title>
<polygon fill="#8dd3c7" stroke="black" points="1087.66,-187 1084.66,-191 1063.66,-191 1060.66,-187 1004.34,-187 1004.34,-151 1087.66,-151 1087.66,-187"/>
<text text-anchor="middle" x="1046" y="-164.8" font-family="Times,serif" font-size="14.00">AppModule</text>
</g>
<!-- AdminDashboardComponent&#45;&gt;AppModule -->
<g id="edge1" class="edge">
<title>AdminDashboardComponent&#45;&gt;AppModule</title>
<path fill="none" stroke="black" d="M1949,-122.09C1949,-145.13 1949,-182 1949,-182 1949,-182 1097.74,-182 1097.74,-182"/>
<polygon fill="black" stroke="black" points="1097.74,-178.5 1087.74,-182 1097.74,-185.5 1097.74,-178.5"/>
</g>
<!-- App -->
<g id="node2" class="node">
<title>App</title>
<polygon fill="#ffffb3" stroke="black" points="1841,-122 1787,-122 1787,-86 1841,-86 1841,-122"/>
<text text-anchor="middle" x="1814" y="-99.8" font-family="Times,serif" font-size="14.00">App</text>
</g>
<!-- App&#45;&gt;AppModule -->
<g id="edge2" class="edge">
<title>App&#45;&gt;AppModule</title>
<path fill="none" stroke="black" d="M1814,-122.04C1814,-143.66 1814,-177 1814,-177 1814,-177 1097.84,-177 1097.84,-177"/>
<polygon fill="black" stroke="black" points="1097.84,-173.5 1087.84,-177 1097.84,-180.5 1097.84,-173.5"/>
</g>
<!-- CarritoComponent -->
<g id="node3" class="node">
<title>CarritoComponent</title>
<polygon fill="#ffffb3" stroke="black" points="1769.49,-122 1648.51,-122 1648.51,-86 1769.49,-86 1769.49,-122"/>
<text text-anchor="middle" x="1709" y="-99.8" font-family="Times,serif" font-size="14.00">CarritoComponent</text>
</g>
<!-- CarritoComponent&#45;&gt;AppModule -->
<g id="edge3" class="edge">
<title>CarritoComponent&#45;&gt;AppModule</title>
<path fill="none" stroke="black" d="M1709,-122.22C1709,-142.37 1709,-172 1709,-172 1709,-172 1097.72,-172 1097.72,-172"/>
<polygon fill="black" stroke="black" points="1097.72,-168.5 1087.72,-172 1097.72,-175.5 1097.72,-168.5"/>
</g>
<!-- CatalogoComponent -->
<g id="node4" class="node">
<title>CatalogoComponent</title>
<polygon fill="#ffffb3" stroke="black" points="1630.88,-122 1499.12,-122 1499.12,-86 1630.88,-86 1630.88,-122"/>
<text text-anchor="middle" x="1565" y="-99.8" font-family="Times,serif" font-size="14.00">CatalogoComponent</text>
</g>
<!-- CatalogoComponent&#45;&gt;AppModule -->
<g id="edge4" class="edge">
<title>CatalogoComponent&#45;&gt;AppModule</title>
<path fill="none" stroke="black" d="M1565,-122.22C1565,-140.83 1565,-167 1565,-167 1565,-167 1098.03,-167 1098.03,-167"/>
<polygon fill="black" stroke="black" points="1098.03,-163.5 1088.03,-167 1098.03,-170.5 1098.03,-163.5"/>
</g>
<!-- FormatearPrecioPipe -->
<g id="node5" class="node">
<title>FormatearPrecioPipe</title>
<polygon fill="#ffffb3" stroke="black" points="1481.18,-122 1346.82,-122 1346.82,-86 1481.18,-86 1481.18,-122"/>
<text text-anchor="middle" x="1414" y="-99.8" font-family="Times,serif" font-size="14.00">FormatearPrecioPipe</text>
</g>
<!-- FormatearPrecioPipe&#45;&gt;AppModule -->
<g id="edge5" class="edge">
<title>FormatearPrecioPipe&#45;&gt;AppModule</title>
<path fill="none" stroke="black" d="M1414,-122.03C1414,-139.06 1414,-162 1414,-162 1414,-162 1097.86,-162 1097.86,-162"/>
<polygon fill="black" stroke="black" points="1097.86,-158.5 1087.86,-162 1097.86,-165.5 1097.86,-158.5"/>
</g>
<!-- LoginComponent -->
<g id="node6" class="node">
<title>LoginComponent</title>
<polygon fill="#ffffb3" stroke="black" points="1329.28,-122 1214.72,-122 1214.72,-86 1329.28,-86 1329.28,-122"/>
<text text-anchor="middle" x="1272" y="-99.8" font-family="Times,serif" font-size="14.00">LoginComponent</text>
</g>
<!-- LoginComponent&#45;&gt;AppModule -->
<g id="edge6" class="edge">
<title>LoginComponent&#45;&gt;AppModule</title>
<path fill="none" stroke="black" d="M1272,-122.24C1272,-137.57 1272,-157 1272,-157 1272,-157 1097.72,-157 1097.72,-157"/>
<polygon fill="black" stroke="black" points="1097.72,-153.5 1087.72,-157 1097.72,-160.5 1097.72,-153.5"/>
</g>
<!-- MisPedidosComponent -->
<g id="node7" class="node">
<title>MisPedidosComponent</title>
<polygon fill="#ffffb3" stroke="black" points="1196.95,-122 1049.05,-122 1049.05,-86 1196.95,-86 1196.95,-122"/>
<text text-anchor="middle" x="1123" y="-99.8" font-family="Times,serif" font-size="14.00">MisPedidosComponent</text>
</g>
<!-- MisPedidosComponent&#45;&gt;AppModule -->
<g id="edge7" class="edge">
<title>MisPedidosComponent&#45;&gt;AppModule</title>
<path fill="none" stroke="black" d="M1068.55,-122.11C1068.55,-122.11 1068.55,-140.99 1068.55,-140.99"/>
<polygon fill="black" stroke="black" points="1065.05,-140.99 1068.55,-150.99 1072.05,-140.99 1065.05,-140.99"/>
</g>
<!-- NavbarComponent -->
<g id="node8" class="node">
<title>NavbarComponent</title>
<polygon fill="#ffffb3" stroke="black" points="1031.03,-122 908.97,-122 908.97,-86 1031.03,-86 1031.03,-122"/>
<text text-anchor="middle" x="970" y="-99.8" font-family="Times,serif" font-size="14.00">NavbarComponent</text>
</g>
<!-- NavbarComponent&#45;&gt;AppModule -->
<g id="edge8" class="edge">
<title>NavbarComponent&#45;&gt;AppModule</title>
<path fill="none" stroke="black" d="M1017.72,-122.11C1017.72,-122.11 1017.72,-140.99 1017.72,-140.99"/>
<polygon fill="black" stroke="black" points="1014.22,-140.99 1017.72,-150.99 1021.22,-140.99 1014.22,-140.99"/>
</g>
<!-- PagoComponent -->
<g id="node9" class="node">
<title>PagoComponent</title>
<polygon fill="#ffffb3" stroke="black" points="890.83,-122 781.17,-122 781.17,-86 890.83,-86 890.83,-122"/>
<text text-anchor="middle" x="836" y="-99.8" font-family="Times,serif" font-size="14.00">PagoComponent</text>
</g>
<!-- PagoComponent&#45;&gt;AppModule -->
<g id="edge9" class="edge">
<title>PagoComponent&#45;&gt;AppModule</title>
<path fill="none" stroke="black" d="M836,-122.24C836,-137.57 836,-157 836,-157 836,-157 994.26,-157 994.26,-157"/>
<polygon fill="black" stroke="black" points="994.26,-160.5 1004.26,-157 994.26,-153.5 994.26,-160.5"/>
</g>
<!-- PerfilComponent -->
<g id="node10" class="node">
<title>PerfilComponent</title>
<polygon fill="#ffffb3" stroke="black" points="763.43,-122 650.57,-122 650.57,-86 763.43,-86 763.43,-122"/>
<text text-anchor="middle" x="707" y="-99.8" font-family="Times,serif" font-size="14.00">PerfilComponent</text>
</g>
<!-- PerfilComponent&#45;&gt;AppModule -->
<g id="edge10" class="edge">
<title>PerfilComponent&#45;&gt;AppModule</title>
<path fill="none" stroke="black" d="M707,-122.03C707,-139.06 707,-162 707,-162 707,-162 994.09,-162 994.09,-162"/>
<polygon fill="black" stroke="black" points="994.09,-165.5 1004.09,-162 994.09,-158.5 994.09,-165.5"/>
</g>
<!-- ProductCrudComponent -->
<g id="node11" class="node">
<title>ProductCrudComponent</title>
<polygon fill="#ffffb3" stroke="black" points="632.38,-122 479.62,-122 479.62,-86 632.38,-86 632.38,-122"/>
<text text-anchor="middle" x="556" y="-99.8" font-family="Times,serif" font-size="14.00">ProductCrudComponent</text>
</g>
<!-- ProductCrudComponent&#45;&gt;AppModule -->
<g id="edge11" class="edge">
<title>ProductCrudComponent&#45;&gt;AppModule</title>
<path fill="none" stroke="black" d="M556,-122.22C556,-140.83 556,-167 556,-167 556,-167 994.22,-167 994.22,-167"/>
<polygon fill="black" stroke="black" points="994.22,-170.5 1004.22,-167 994.22,-163.5 994.22,-170.5"/>
</g>
<!-- RecuperarComponent -->
<g id="node12" class="node">
<title>RecuperarComponent</title>
<polygon fill="#ffffb3" stroke="black" points="461.35,-122 322.65,-122 322.65,-86 461.35,-86 461.35,-122"/>
<text text-anchor="middle" x="392" y="-99.8" font-family="Times,serif" font-size="14.00">RecuperarComponent</text>
</g>
<!-- RecuperarComponent&#45;&gt;AppModule -->
<g id="edge12" class="edge">
<title>RecuperarComponent&#45;&gt;AppModule</title>
<path fill="none" stroke="black" d="M392,-122.22C392,-142.37 392,-172 392,-172 392,-172 994.09,-172 994.09,-172"/>
<polygon fill="black" stroke="black" points="994.09,-175.5 1004.09,-172 994.09,-168.5 994.09,-175.5"/>
</g>
<!-- RegistroComponent -->
<g id="node13" class="node">
<title>RegistroComponent</title>
<polygon fill="#ffffb3" stroke="black" points="304.27,-122 175.73,-122 175.73,-86 304.27,-86 304.27,-122"/>
<text text-anchor="middle" x="240" y="-99.8" font-family="Times,serif" font-size="14.00">RegistroComponent</text>
</g>
<!-- RegistroComponent&#45;&gt;AppModule -->
<g id="edge13" class="edge">
<title>RegistroComponent&#45;&gt;AppModule</title>
<path fill="none" stroke="black" d="M240,-122.04C240,-143.66 240,-177 240,-177 240,-177 994.08,-177 994.08,-177"/>
<polygon fill="black" stroke="black" points="994.08,-180.5 1004.08,-177 994.08,-173.5 994.08,-180.5"/>
</g>
<!-- App  -->
<g id="node16" class="node">
<title>App </title>
<polygon fill="#80b1d3" stroke="black" points="1073,-252 1019,-252 1019,-216 1073,-216 1073,-252"/>
<text text-anchor="middle" x="1046" y="-229.8" font-family="Times,serif" font-size="14.00">App </text>
</g>
<!-- AppModule&#45;&gt;App  -->
<g id="edge15" class="edge">
<title>AppModule&#45;&gt;App </title>
<path fill="none" stroke="black" stroke-dasharray="1,5" d="M1046,-187.11C1046,-187.11 1046,-205.99 1046,-205.99"/>
<polygon fill="black" stroke="black" points="1042.5,-205.99 1046,-215.99 1049.5,-205.99 1042.5,-205.99"/>
</g>
<!-- AppRoutingModule -->
<g id="node15" class="node">
<title>AppRoutingModule</title>
<polygon fill="#8dd3c7" stroke="black" points="152.27,-122 149.27,-126 128.27,-126 125.27,-122 23.73,-122 23.73,-86 152.27,-86 152.27,-122"/>
<text text-anchor="middle" x="88" y="-99.8" font-family="Times,serif" font-size="14.00">AppRoutingModule</text>
</g>
<!-- AppRoutingModule&#45;&gt;AppModule -->
<g id="edge14" class="edge">
<title>AppRoutingModule&#45;&gt;AppModule</title>
<path fill="none" stroke="black" d="M88,-122.09C88,-145.13 88,-182 88,-182 88,-182 994.22,-182 994.22,-182"/>
<polygon fill="black" stroke="black" points="994.22,-185.5 1004.22,-182 994.22,-178.5 994.22,-185.5"/>
</g>
</g>
</svg>
